<?xml version="1.0" encoding="utf-8" ?>
<svg baseProfile="full" height="300mm" version="1.1" viewBox="0,0,200,300" width="200mm" xmlns="http://www.w3.org/2000/svg" xmlns:ev="http://www.w3.org/2001/xml-events" xmlns:xlink="http://www.w3.org/1999/xlink"><defs /><rect fill="#222222" height="300" width="200" x="0" y="0" /><text fill="#FFFFFF" style="font-size:12px; font-family:Arial; font-weight:bold;" x="10" y="20">fish</text><text fill="#FFFFFF" style="font-size:4px; font-family:Arial" x="10" y="280">ATHLETE</text><text fill="#FFFFFF" style="font-size:9px; font-family:Arial" x="10" y="290">fish</text><text fill="#FFFFFF" style="font-size:4px; font-family:Arial" x="120" y="280">STATISTICS</text><text fill="#FFFFFF" style="font-size:3px; font-family:Arial" x="120" y="285">Number: 1</text><text fill="#FFFFFF" style="font-size:3px; font-family:Arial" x="120" y="290">Weekly: 1.0</text><text fill="#FFFFFF" style="font-size:3px; font-family:Arial" x="141" y="285">Total: 4.3 km</text><text fill="#FFFFFF" style="font-size:3px; font-family:Arial" x="141" y="290">Avg: 4.3 km</text><text fill="#FFFFFF" style="font-size:3px; font-family:Arial" x="167" y="285">Min: 4.3 km</text><text fill="#FFFFFF" style="font-size:3px; font-family:Arial" x="167" y="290">Max: 4.3 km</text><polyline fill="none" points="71.15100407600403,149.46386181004345 72.0968727953732,149.46386181004345 72.0968727953732,148.39101402647793 73.04274151101708,149.46386181004345 73.98861023411155,149.46386181004345 74.93447895348072,149.46386181004345 75.8803476691246,148.39101402647793 74.93447895348072,148.39101402647793 75.8803476691246,147.31816614512354 84.39316613972187,145.17247007694095 93.85185332596302,160.1923341192305 97.63532820343971,167.70225877314806 86.28490357846022,178.43071404658258 82.50142870470881,178.43071404658258 75.8803476691246,179.50355902127922 48.450154826045036,181.64924867264926 46.55841738730669,194.52337815985084 51.287760976701975,193.45053458865732 55.07123585790396,192.37769091688097 58.85471073165536,191.30484714265913 66.42166048288345,204.17896580789238 72.0968727953732,218.1259114043787 73.98861023411155,223.49011674057692 75.8803476691246,227.78147920779884 85.33903485909104,231.0 86.28490357846022,226.70863874070346 88.17664101347327,223.49011674057692 92.90598461031914,219.19875267427415 93.85185332596302,212.7617035638541 92.90598461031914,211.6888616969809 93.85185332596302,195.59622163325548 91.01424717530608,190.2320032697171 86.28490357846022,182.72209334932268 89.12250973284245,140.8810767447576 94.7977220453322,91.5299381390214 105.20227795094252,81.8742557791993 110.87749026343226,77.58283879049122 119.39030873402953,72.21856529638171 125.06552105024457,72.21856529638171 141.14528926834464,78.6556931855157 144.92876414209604,80.8014016803354 150.60397645831108,89.3842316493392 154.38745133206248,93.67564422544092 158.17092620953918,97.96705519966781 158.17092620953918,103.33131666574627 154.38745133206248,101.18561237771064 156.27918877080083,97.96705519966781 152.49571389704943,88.31137825269252 135.4700769558549,74.3642749954015 129.79486463963985,73.29142019711435 125.06552105024457,74.3642749954015 122.22791489213705,74.3642749954015 111.82335898652673,81.8742557791993 109.93162154778838,84.01996366959065 108.98575282841921,92.60279123298824 108.03988410905004,97.96705519966781 107.09401539340615,102.25846457201988 106.14814667403698,106.54987233877182 108.03988410905004,116.20553395245224 105.20227795094252,129.07973680552095 105.20227795094252,144.09962189476937 99.52706564217806,147.31816614512354 95.74359076470137,148.39101402647793 91.01424717530608,148.39101402647793 86.28490357846022,147.31816614512354 80.60969126597047,147.31816614512354 75.8803476691246,148.39101402647793 44.666679948568344,155.90094639640301 45.61254866421223,167.70225877314806 56.01710457354784,166.6294126957655 61.69231688603759,166.6294126957655 67.36752919852734,166.6294126957655 73.04274151101708,166.6294126957655 84.39316613972187,167.70225877314806 107.09401539340615,170.9207964092493 102.36467179656029,184.86778239998966 101.4188030809164,194.52337815985084 103.31054051592946,209.5431776540354 75.8803476691246,210.61601972579956 75.8803476691246,205.25180837791413 87.2307722941041,200.96043749246746 91.96011588722467,194.52337815985084 89.12250973284245,188.08631521929055 86.28490357846022,188.08631521929055 84.39316613972187,187.01347104553133 82.50142870470881,187.01347104553133 77.77208510786295,183.7949379235506 72.0968727953732,183.7949379235506 65.47579176351428,184.86778239998966 53.17949841916561,182.72209334932268 41.829073794186115,174.139333140105 38.991467636078596,166.6294126957655 44.666679948568344,153.75525193847716 52.23362969979644,151.6095570717007 57.908842012286186,151.6095570717007 62.63818560540676,150.53670949209481 68.31339791789651,150.53670949209481 89.12250973284245,141.953925229609 90.06837845221162,134.44398373831064 91.01424717530608,124.78833745792508 91.96011588722467,120.49693650845438 91.01424717530608,115.13268306106329 98.58119692280889,87.23852475639433 108.98575282841921,78.6556931855157 118.44444001838565,72.21856529638171 123.17378361523151,70.07285520154983 141.14528926834464,72.21856529638171 146.82050158455968,81.8742557791993 149.6581077389419,87.23852475639433 150.60397645831108,93.67564422544092 153.4415826126933,100.11276008654386 156.27918877080083,107.62272403016686 154.38745133206248,104.40416865516454 152.49571389704943,102.25846457201988 153.4415826126933,97.96705519966781 149.6581077389419,92.60279123298824 146.82050158455968,86.16567116137594 143.98289542645216,79.72854748181999 139.25355183333158,72.21856529638171 131.68660208582878,72.21856529638171 127.9031272046268,74.3642749954015 124.1196523271501,75.43712969403714 120.336177457124,76.50998429115862 111.82335898652673,81.8742557791993 110.87749026343226,84.01996366959065 109.93162154778838,86.16567116137594 106.14814667403698,95.8213499141857 106.14814667403698,101.18561237771064 106.14814667403698,105.47702054772526 106.14814667403698,110.84127850364894 105.20227795094252,116.20553395245224 103.31054051592946,129.07973680552095 103.31054051592946,135.51683282107115 103.31054051592946,139.80822816118598 104.25640923157334,149.46386181004345 104.25640923157334,155.90094639640301 102.36467179656029,165.55656651593745 89.12250973284245,169.84795062988997 83.4472974166274,171.99364208523184 79.6638225466013,173.06648766156286 74.93447895348072,174.139333140105 69.25926664099097,175.21217851620167 55.07123585790396,176.28502379357815 45.61254866421223,185.9406267721206 46.55841738730669,194.52337815985084 52.23362969979644,194.52337815985084 56.01710457354784,195.59622163325548 77.77208510786295,212.7617035638541 82.50142870470881,213.83454533480108 91.01424717530608,212.7617035638541 92.90598461031914,204.17896580789238 92.90598461031914,199.887594521977 92.90598461031914,196.66906500793993 91.01424717530608,185.9406267721206 90.06837845221162,176.28502379357815 91.96011588722467,170.9207964092493 91.96011588722467,164.48372023832053 91.96011588722467,158.0466404594481 92.90598461031914,139.80822816118598 91.96011588722467,134.44398373831064 91.96011588722467,129.07973680552095 92.90598461031914,122.6426371820271 90.06837845221162,109.76842711213976 84.39316613972187,104.40416865516454 86.28490357846022,109.76842711213976 91.96011588722467,118.35123543161899 92.90598461031914,123.71548737213016 92.90598461031914,129.07973680552095 92.90598461031914,134.44398373831064 93.85185332596302,139.80822816118598 93.85185332596302,144.09962189476937 96.68945948407054,151.6095570717007 98.58119692280889,155.90094639640301 98.58119692280889,161.26518080197275 100.47293435782194,167.70225877314806 100.47293435782194,171.99364208523184 102.36467179656029,176.28502379357815 103.31054051592946,188.08631521929055 102.36467179656029,200.96043749246746 103.31054051592946,207.39749321807176 100.47293435782194,220.27159383986145 75.8803476691246,207.39749321807176 86.28490357846022,203.10612313542515 91.01424717530608,190.2320032697171 90.06837845221162,187.01347104553133 89.12250973284245,182.72209334932268 90.06837845221162,178.43071404658258 90.06837845221162,169.84795062988997 91.01424717530608,144.09962189476937 91.01424717530608,129.07973680552095 91.96011588722467,124.78833745792508 91.01424717530608,111.91412979271263 93.85185332596302,96.89420260954648 96.68945948407054,90.45708494260907 104.25640923157334,80.8014016803354 109.93162154778838,78.6556931855157 114.66096514463425,76.50998429115862 140.19942055270076,74.3642749954015 145.87463286146522,85.09281746670604 153.4415826126933,105.47702054772526 151.54984517395496,102.25846457201988 151.54984517395496,94.74849711824208 139.25355183333158,81.8742557791993 136.41594567522407,79.72854748181999 133.57833952084184,78.6556931855157 126.95725848525763,78.6556931855157 120.336177457124,78.6556931855157 114.66096514463425,87.23852475639433 114.66096514463425,92.60279123298824 111.82335898652673,100.11276008654386 110.87749026343226,106.54987233877182 110.87749026343226,115.13268306106329 110.87749026343226,120.49693650845438 108.03988410905004,135.51683282107115 106.14814667403698,143.02677361201495 105.20227795094252,148.39101402647793 105.20227795094252,153.75525193847716 107.09401539340615,163.4108738573268 108.98575282841921,167.70225877314806 108.98575282841921,176.28502379357815 103.31054051592946,183.7949379235506 95.74359076470137,188.08631521929055 89.12250973284245,192.37769091688097 82.50142870470881,198.8147514499724 82.50142870470881,204.17896580789238 81.55555998161435,210.61601972579956 81.55555998161435,212.7617035638541 89.12250973284245,214.90738700143993 93.85185332596302,208.470335486345 93.85185332596302,202.0332803633064 91.96011588722467,194.52337815985084 91.96011588722467,178.43071404658258 91.01424717530608,163.4108738573268 91.96011588722467,149.46386181004345 91.96011588722467,140.8810767447576 92.90598461031914,134.44398373831064 93.85185332596302,117.27838474139571 93.85185332596302,102.25846457201988 94.7977220453322,94.74849711824208 106.14814667403698,79.72854748181999 122.22791489213705,75.43712969403714 143.98289542645216,76.50998429115862 145.87463286146522,81.8742557791993 148.71223901957273,87.23852475639433 151.54984517395496,101.18561237771064 152.49571389704943,107.62272403016686 152.49571389704943,105.47702054772526 150.60397645831108,101.18561237771064 149.6581077389419,94.74849711824208 134.52420823648572,84.01996366959065 127.9031272046268,80.8014016803354 124.1196523271501,80.8014016803354 121.28204616904259,79.72854748181999 110.87749026343226,84.01996366959065 109.93162154778838,87.23852475639433 111.82335898652673,92.60279123298824 110.87749026343226,97.96705519966781 108.03988410905004,103.33131666574627 108.98575282841921,115.13268306106329 108.98575282841921,118.35123543161899 106.14814667403698,134.44398373831064 104.25640923157334,141.953925229609 104.25640923157334,148.39101402647793 105.20227795094252,159.11948733776808 108.03988410905004,166.6294126957655 103.31054051592946,166.6294126957655 96.68945948407054,167.70225877314806 87.2307722941041,170.9207964092493 77.77208510786295,174.139333140105 63.584054328501225,176.28502379357815 57.908842012286186,177.35786897223443 44.666679948568344,183.7949379235506 48.450154826045036,195.59622163325548 58.85471073165536,195.59622163325548 67.36752919852734,197.74190827831626 79.6638225466013,210.61601972579956 85.33903485909104,210.61601972579956 92.90598461031914,210.61601972579956 93.85185332596302,205.25180837791413 94.7977220453322,202.0332803633064 96.68945948407054,191.30484714265913 94.7977220453322,188.08631521929055 94.7977220453322,178.43071404658258 94.7977220453322,170.9207964092493 93.85185332596302,164.48372023832053 93.85185332596302,153.75525193847716 94.7977220453322,146.2453181631863 94.7977220453322,138.7353794761002 94.7977220453322,133.371134551242 94.7977220453322,111.91412979271263 96.68945948407054,97.96705519966781 99.52706564217806,91.5299381390214 106.14814667403698,80.8014016803354 110.87749026343226,76.50998429115862 115.60683386027813,73.29142019711435 127.9031272046268,69.0 143.98289542645216,75.43712969403714 147.76637030020356,79.72854748181999 154.38745133206248,90.45708494260907 157.22505749017,97.96705519966781 159.11679492890835,102.25846457201988 154.38745133206248,97.96705519966781 152.49571389704943,88.31137825269252 143.98289542645216,80.8014016803354 135.4700769558549,74.3642749954015 127.9031272046268,76.50998429115862 124.1196523271501,77.58283879049122 120.336177457124,78.6556931855157 113.71509642153978,81.8742557791993 109.93162154778838,90.45708494260907 108.98575282841921,95.8213499141857 108.03988410905004,106.54987233877182 108.03988410905004,111.91412979271263 108.98575282841921,117.27838474139571 108.03988410905004,123.71548737213016 107.09401539340615,136.5896818060428 107.09401539340615,150.53670949209481 107.09401539340615,155.90094639640301 108.03988410905004,162.33802737947553 108.03988410905004,166.6294126957655 109.93162154778838,177.35786897223443 108.98575282841921,188.08631521929055 96.68945948407054,193.45053458865732 87.2307722941041,196.66906500793993 78.71795382350683,198.8147514499724 67.36752919852734,202.0332803633064 60.746448170393705,203.10612313542515 54.125367134809494,204.17896580789238 38.04559891298413,191.30484714265913 37.09973019734025,179.50355902127922 49.39602354168892,175.21217851620167 56.01710457354784,174.139333140105 62.63818560540676,173.06648766156286 69.25926664099097,170.9207964092493 82.50142870470881,168.77510475367308 93.85185332596302,164.48372023832053 92.90598461031914,158.0466404594481 91.01424717530608,150.53670949209481 93.85185332596302,137.66253068950027 94.7977220453322,126.93403733242303 94.7977220453322,122.6426371820271 92.90598461031914,102.25846457201988 95.74359076470137,94.74849711824208 101.4188030809164,82.94710977375507 111.82335898652673,75.43712969403714 116.5527025796473,73.29142019711435 121.28204616904259,70.07285520154983 142.0911579914391,71.1457103015855 147.76637030020356,81.8742557791993 151.54984517395496,86.16567116137594 155.33332005515695,103.33131666574627 154.38745133206248,100.11276008654386 154.38745133206248,97.96705519966781 152.49571389704943,94.74849711824208 149.6581077389419,92.60279123298824 143.98289542645216,86.16567116137594 140.19942055270076,82.94710977375507 134.52420823648572,76.50998429115862 128.84899592399597,77.58283879049122 119.39030873402953,78.6556931855157 110.87749026343226,84.01996366959065 107.09401539340615,89.3842316493392 103.31054051592946,100.11276008654386 103.31054051592946,111.91412979271263 103.31054051592946,118.35123543161899 103.31054051592946,124.78833745792508 103.31054051592946,130.15258639212698 102.36467179656029,143.02677361201495 103.31054051592946,150.53670949209481 104.25640923157334,155.90094639640301 105.20227795094252,162.33802737947553 105.20227795094252,174.139333140105 105.20227795094252,179.50355902127922 104.25640923157334,184.86778239998966 106.14814667403698,189.1591592952609 98.58119692280889,195.59622163325548 93.85185332596302,196.66906500793993 88.17664101347327,197.74190827831626 80.60969126597047,200.96043749246746 67.36752919852734,204.17896580789238 58.85471073165536,204.17896580789238 42.77494250983,195.59622163325548 38.991467636078596,188.08631521929055 41.829073794186115,178.43071404658258 47.50428610667586,176.28502379357815 55.07123585790396,175.21217851620167 60.746448170393705,174.139333140105 73.04274151101708,171.99364208523184 80.60969126597047,173.06648766156286 86.28490357846022,170.9207964092493 98.58119692280889,181.64924867264926 99.52706564217806,188.08631521929055 100.47293435782194,194.52337815985084 100.47293435782194,202.0332803633064 96.68945948407054,217.05307003855705 92.90598461031914,220.27159383986145 87.2307722941041,223.49011674057692 80.60969126597047,205.25180837791413 87.2307722941041,203.10612313542515 92.90598461031914,200.96043749246746 98.58119692280889,194.52337815985084 96.68945948407054,184.86778239998966 94.7977220453322,176.28502379357815 95.74359076470137,171.99364208523184 93.85185332596302,166.6294126957655 91.96011588722467,162.33802737947553 92.90598461031914,150.53670949209481 91.96011588722467,137.66253068950027 92.90598461031914,126.93403733242303 91.01424717530608,115.13268306106329 90.06837845221162,102.25846457201988 92.90598461031914,96.89420260954648 99.52706564217806,87.23852475639433 104.25640923157334,82.94710977375507 109.93162154778838,79.72854748181999 114.66096514463425,76.50998429115862 139.25355183333158,72.21856529638171 146.82050158455968,80.8014016803354 150.60397645831108,85.09281746670604 155.33332005515695,89.3842316493392 162.90026980265975,101.18561237771064 161.0085323639214,105.47702054772526 155.33332005515695,100.11276008654386 151.54984517395496,96.89420260954648 150.60397645831108,92.60279123298824 144.92876414209604,87.23852475639433 136.41594567522407,77.58283879049122 127.9031272046268,79.72854748181999 124.1196523271501,80.8014016803354 119.39030873402953,81.8742557791993 112.76922770217061,87.23852475639433 108.98575282841921,90.45708494260907 105.20227795094252,99.03990769572556 104.25640923157334,103.33131666574627 103.31054051592946,108.69557561911643 103.31054051592946,115.13268306106329 103.31054051592946,121.56978689599782 103.31054051592946,133.371134551242 103.31054051592946,139.80822816118598 104.25640923157334,144.09962189476937 105.20227795094252,149.46386181004345 106.14814667403698,154.82809921819717 105.20227795094252,166.6294126957655 102.36467179656029,174.139333140105 97.63532820343971,175.21217851620167 91.96011588722467,175.21217851620167 86.28490357846022,175.21217851620167 81.55555998161435,175.21217851620167 68.31339791789651,177.35786897223443 60.746448170393705,179.50355902127922 53.17949841916561,179.50355902127922 44.666679948568344,183.7949379235506 43.72081122919917,187.01347104553133 43.72081122919917,189.1591592952609 43.72081122919917,195.59622163325548 48.450154826045036,196.66906500793993 50.34189226478338,195.59622163325548 53.17949841916561,195.59622163325548 56.96297329291701,195.59622163325548 59.80057944729924,194.52337815985084 63.584054328501225,194.52337815985084 67.36752919852734,194.52337815985084 70.20513535663486,193.45053458865732 73.04274151101708,193.45053458865732 79.6638225466013,193.45053458865732 82.50142870470881,192.37769091688097 85.33903485909104,192.37769091688097 88.17664101347327,192.37769091688097 91.96011588722467,193.45053458865732 96.68945948407054,193.45053458865732 98.58119692280889,193.45053458865732 99.52706564217806,192.37769091688097 97.63532820343971,190.2320032697171 96.68945948407054,189.1591592952609 95.74359076470137,190.2320032697171" stroke="#4DD2FF" stroke-linecap="round" stroke-linejoin="round" stroke-width="0.5"><title>2021-03-08 4.3km</title></polyline></svg>